<svg width="23" height="23" viewBox="0 0 23 23" fill="none" xmlns="http://www.w3.org/2000/svg"><path fill-rule="evenodd" clip-rule="evenodd" d="m14.06 19.557-.037.022-.453.261-.037.022-.857.495a2 2 0 0 1-.136.068l-.048.027-.002.002-.005.003-1.211.682-.66.393-1.808 1.071-.007.008a.1.1 0 0 1-.06.001 2.7 2.7 0 0 1-.513-.226 867 867 0 0 0-3.668-2.093 979 979 0 0 1-2.879-1.64 2.66 2.66 0 0 1-1.338-2.308V6.738c0-.95.507-1.827 1.33-2.303L8.15.695A2.66 2.66 0 0 1 9.528.34c.632.011 1.304.029 1.976.046.682.018 1.364.036 2.006.047a.1.1 0 0 0-.047.013l-3.21 1.86-.005.003h-.002a3 3 0 0 0-.229.12l-5.77 3.33a2.9 2.9 0 0 0-1.444 2.503v6.662c0 1.03.553 1.989 1.444 2.503l3.977 2.296c.104.06.231.06.335 0l2.379-1.351.037-.021.258-.15.053-.03.019-.01.13-.076 1.24-.676h.001l3.216-1.857a2.43 2.43 0 0 0 1.214-2.102V9.736c0-.865-.465-1.67-1.214-2.103l-3.217-1.857a3 3 0 0 0-.715-.273c-.301-.073-.506-.13-.638-.168a2 2 0 0 0-.175-.045l.528-.305 2.33-1.343.024-.008c-.003.015.03.026.07.038a.4.4 0 0 1 .078.03l4.262 2.461a2.43 2.43 0 0 1 1.213 2.103v6.662a2.44 2.44 0 0 1-1.207 2.098z" fill="#fff"/><path d="m14.026 3.608.02.01m-3.494 1.995-.134.075m0 0-3.72 2.177a2.43 2.43 0 0 0-.88 1.87v3.716a2.44 2.44 0 0 0 1.213 2.102l3.217 1.857.185.107.844.476c.058.034.08.127.028.167m-.887-12.472.729-.398m2.898-1.671-.04.023m.04-.023q-.014.007-.015.015M11.147 5.29l2.85-1.644.009-.004m-2.86 1.648.529-.305m-.529.305q.046.007.176.045c.132.038.337.095.638.168.322.077.567.194.715.273l3.217 1.857a2.43 2.43 0 0 1 1.214 2.103v3.714a2.43 2.43 0 0 1-1.214 2.102l-3.216 1.858-1.24.675M13.517.433a2.5 2.5 0 0 1 .573.102q.304.09.58.25l2.122 1.227M13.517.433h-.007m.007 0h-.007m-3.26 1.873-.006.003a3 3 0 0 0-.229.119l-5.77 3.33a2.9 2.9 0 0 0-1.444 2.503v6.663c0 1.029.553 1.988 1.444 2.503l3.996 2.306c.103.06.231.06.335 0l2.368-1.365.037-.022.454-.261m0 0-.131.075M13.99 3.69l-2.316 1.296m4.578-3.27c.029-.016.568.322.596.338l4.121 2.386a2.66 2.66 0 0 1 1.327 2.3v9.613a2.66 2.66 0 0 1-1.33 2.303c-1.422.82-2.828 1.633-4.241 2.45l-.037.02-.454.262-.036.022-1.66.958c-.395.228-.842.35-1.298.356-1.198.015-2.47.005-3.667.02-.025 0-.098.002-.196-.005a2.5 2.5 0 0 1-.57-.109q-.012-.005-.009-.018m2.506-4.45-.02.01-.052.03-.258.15-.037.02-2.379 1.352a.34.34 0 0 1-.335 0l-3.977-2.296a2.9 2.9 0 0 1-1.444-2.503V8.262a2.9 2.9 0 0 1 1.445-2.503l5.77-3.33q.111-.065.228-.12h.002l.004-.003 3.21-1.86a.1.1 0 0 1 .048-.013m0 0c-.642-.011-1.324-.03-2.006-.047C10.832.37 10.16.351 9.528.34a2.66 2.66 0 0 0-1.379.355l-6.478 3.74a2.66 2.66 0 0 0-1.33 2.303v9.607c0 .953.512 1.834 1.338 2.308q1.447.828 2.879 1.64c1.217.692 2.433 1.383 3.668 2.093q.246.142.513.226.03.01.06-.001m0 0 .007-.008 1.808-1.071M8.8 22.611l.018-.008 1.797-1.071m0 0 .66-.393 1.21-.682.006-.003.002-.002.048-.027a2 2 0 0 0 .136-.068l.857-.495.037-.022.454-.261.037-.022 4.384-2.531q.133-.078.255-.17m-8.086 4.676.4-.237.254-.151 1.21-.682.006-.003.002-.002.048-.027a2 2 0 0 0 .136-.069l.857-.495.037-.021.454-.262.037-.021 4.384-2.532q.137-.078.26-.174m0 0a2.44 2.44 0 0 0 .953-1.928V8.266c0-.865-.465-1.67-1.213-2.103l-4.262-2.46a.4.4 0 0 0-.079-.03c-.038-.013-.072-.024-.069-.039m4.67 13.222c.598-.455.96-1.17.96-1.933V8.262c0-.864-.466-1.67-1.214-2.102l-4.353-2.513a.1.1 0 0 0-.062-.012m0 0-.024.008m0 0-2.331 1.343" stroke="#fff" stroke-width=".308" stroke-miterlimit="10"/></svg>